<svg width="149" height="46" viewBox="0 0 149 46" fill="none" xmlns="http://www.w3.org/2000/svg">
<rect width="47" height="45" fill="#FFFEFE"/>
<path d="M12.0805 45.3078L0.0980825 45.3339L0.0670018 31.0741L43.7308 17.9321L12.0805 45.3078ZM47.098 45.2314L24.3412 45.281L47.0553 25.6348L47.098 45.2314ZM47.0181 8.58699L3.10345 21.8048L25.2509 0.278947L46.9999 0.231543L47.0181 8.58699ZM0.028999 13.6386L0 0.333984L13.749 0.304017L0.028999 13.6386Z" fill="#306C4D"/>
<path d="M59.6728 14.096C60.0088 14.704 60.3848 15.232 60.8008 15.68C61.2328 16.128 61.6968 16.472 62.1928 16.712C62.7048 16.952 63.2408 17.072 63.8008 17.072C64.3928 17.072 64.8808 16.928 65.2648 16.64C65.6488 16.336 65.8408 15.928 65.8408 15.416C65.8408 14.984 65.7288 14.64 65.5048 14.384C65.2808 14.112 64.9208 13.856 64.4248 13.616C63.9288 13.376 63.2728 13.104 62.4568 12.8C62.0568 12.656 61.5928 12.456 61.0648 12.2C60.5528 11.944 60.0648 11.616 59.6008 11.216C59.1368 10.8 58.7528 10.304 58.4488 9.728C58.1448 9.136 57.9928 8.424 57.9928 7.592C57.9928 6.6 58.2488 5.744 58.7608 5.024C59.2888 4.304 59.9928 3.76 60.8728 3.392C61.7688 3.008 62.7608 2.816 63.8488 2.816C64.9688 2.816 65.9368 3 66.7528 3.368C67.5848 3.736 68.2728 4.2 68.8168 4.76C69.3608 5.32 69.7768 5.888 70.0648 6.464L66.9688 8.192C66.7288 7.792 66.4488 7.448 66.1288 7.16C65.8248 6.856 65.4808 6.624 65.0968 6.464C64.7288 6.288 64.3288 6.2 63.8968 6.2C63.3208 6.2 62.8808 6.328 62.5768 6.584C62.2728 6.824 62.1208 7.128 62.1208 7.496C62.1208 7.88 62.2648 8.216 62.5528 8.504C62.8568 8.792 63.2808 9.056 63.8248 9.296C64.3848 9.536 65.0568 9.792 65.8408 10.064C66.4328 10.288 66.9848 10.552 67.4968 10.856C68.0088 11.144 68.4568 11.496 68.8408 11.912C69.2408 12.328 69.5528 12.808 69.7768 13.352C70.0008 13.896 70.1128 14.52 70.1128 15.224C70.1128 16.072 69.9368 16.832 69.5848 17.504C69.2488 18.16 68.7848 18.712 68.1928 19.16C67.6168 19.608 66.9528 19.944 66.2008 20.168C65.4648 20.408 64.7048 20.528 63.9208 20.528C62.8328 20.528 61.8168 20.336 60.8728 19.952C59.9448 19.552 59.1368 19.016 58.4488 18.344C57.7608 17.672 57.2248 16.936 56.8408 16.136L59.6728 14.096ZM73.5448 6.824V3.2H86.8408V6.824H82.2088V20H78.1528V6.824H73.5448ZM93.766 20V16.664H102.238V20H93.766ZM93.766 6.536V3.2H102.238V6.536H93.766ZM93.766 12.8V9.536H101.758V12.8H93.766ZM91.078 3.2H94.966V20H91.078V3.2ZM110.579 16.76L110.867 13.664H119.195L119.459 16.76H110.579ZM114.971 9.368L112.619 14.792L112.811 15.68L110.723 20H106.139L114.971 2.144L123.827 20H119.219L117.203 15.848L117.347 14.816L114.971 9.368ZM127.987 3.2H132.163V20H127.987V3.2ZM133.987 20H130.675V16.4H133.843C134.483 16.4 135.099 16.32 135.691 16.16C136.299 16 136.827 15.736 137.275 15.368C137.739 15 138.107 14.512 138.379 13.904C138.651 13.28 138.787 12.512 138.787 11.6C138.787 10.688 138.651 9.928 138.379 9.32C138.107 8.696 137.739 8.2 137.275 7.832C136.827 7.464 136.299 7.2 135.691 7.04C135.099 6.88 134.483 6.8 133.843 6.8H130.675V3.2H133.987C135.827 3.2 137.419 3.544 138.763 4.232C140.107 4.92 141.147 5.888 141.883 7.136C142.619 8.384 142.987 9.872 142.987 11.6C142.987 13.312 142.619 14.8 141.883 16.064C141.147 17.312 140.107 18.28 138.763 18.968C137.419 19.656 135.827 20 133.987 20ZM60.5128 28.68V25.2H68.0248V28.68H60.5128ZM60.5128 35.256V31.992H67.7848V35.256H60.5128ZM57.8248 25.2H61.7128V42H57.8248V25.2ZM74.443 38.76L74.731 35.664H83.059L83.323 38.76H74.443ZM78.835 31.368L76.483 36.792L76.675 37.68L74.587 42H70.003L78.835 24.144L87.691 42H83.083L81.067 37.848L81.211 36.816L78.835 31.368ZM93.6994 36.096C94.0354 36.704 94.4114 37.232 94.8274 37.68C95.2594 38.128 95.7234 38.472 96.2194 38.712C96.7314 38.952 97.2674 39.072 97.8274 39.072C98.4194 39.072 98.9074 38.928 99.2914 38.64C99.6754 38.336 99.8674 37.928 99.8674 37.416C99.8674 36.984 99.7554 36.64 99.5314 36.384C99.3074 36.112 98.9474 35.856 98.4514 35.616C97.9554 35.376 97.2994 35.104 96.4834 34.8C96.0834 34.656 95.6194 34.456 95.0914 34.2C94.5794 33.944 94.0914 33.616 93.6274 33.216C93.1634 32.8 92.7794 32.304 92.4754 31.728C92.1714 31.136 92.0194 30.424 92.0194 29.592C92.0194 28.6 92.2754 27.744 92.7874 27.024C93.3154 26.304 94.0194 25.76 94.8994 25.392C95.7954 25.008 96.7874 24.816 97.8754 24.816C98.9954 24.816 99.9634 25 100.779 25.368C101.611 25.736 102.299 26.2 102.843 26.76C103.387 27.32 103.803 27.888 104.091 28.464L100.995 30.192C100.755 29.792 100.475 29.448 100.155 29.16C99.8514 28.856 99.5074 28.624 99.1234 28.464C98.7554 28.288 98.3554 28.2 97.9234 28.2C97.3474 28.2 96.9074 28.328 96.6034 28.584C96.2994 28.824 96.1474 29.128 96.1474 29.496C96.1474 29.88 96.2914 30.216 96.5794 30.504C96.8834 30.792 97.3074 31.056 97.8514 31.296C98.4114 31.536 99.0834 31.792 99.8674 32.064C100.459 32.288 101.011 32.552 101.523 32.856C102.035 33.144 102.483 33.496 102.867 33.912C103.267 34.328 103.579 34.808 103.803 35.352C104.027 35.896 104.139 36.52 104.139 37.224C104.139 38.072 103.963 38.832 103.611 39.504C103.275 40.16 102.811 40.712 102.219 41.16C101.643 41.608 100.979 41.944 100.227 42.168C99.4914 42.408 98.7314 42.528 97.9474 42.528C96.8594 42.528 95.8434 42.336 94.8994 41.952C93.9714 41.552 93.1634 41.016 92.4754 40.344C91.7874 39.672 91.2514 38.936 90.8674 38.136L93.6994 36.096ZM107.571 28.824V25.2H120.867V28.824H116.235V42H112.179V28.824H107.571Z" fill="#306C4D"/>
</svg>
