<svg width="352" height="240" viewBox="0 0 352 240" fill="none" xmlns="http://www.w3.org/2000/svg">
<path d="M335.262 219.646C333.963 217.86 331.461 217.466 329.675 218.766C327.888 220.066 327.494 222.568 328.794 224.354L332.028 222L335.262 219.646ZM330.816 227.162C332.097 228.961 334.595 229.381 336.394 228.1C338.194 226.818 338.614 224.321 337.332 222.521L334.074 224.841L330.816 227.162ZM341.381 228.346C340.143 226.516 337.656 226.036 335.826 227.274C333.997 228.512 333.517 230.999 334.755 232.828L338.068 230.587L341.381 228.346ZM332.028 222L328.794 224.354C329.513 225.342 330.188 226.28 330.816 227.162L334.074 224.841L337.332 222.521C336.689 221.618 335.998 220.657 335.262 219.646L332.028 222ZM338.068 230.587L334.755 232.828C335.375 233.745 335.848 234.459 336.164 234.94C336.322 235.18 336.441 235.362 336.519 235.483C336.558 235.543 336.587 235.588 336.605 235.617C336.615 235.631 336.622 235.642 336.626 235.648C336.628 235.652 336.629 235.654 336.63 235.655C336.63 235.656 336.631 235.656 336.631 235.656C336.631 235.656 336.631 235.656 336.631 235.656C336.631 235.656 336.631 235.656 336.631 235.656C336.631 235.656 336.63 235.656 336.63 235.656C336.63 235.656 336.63 235.656 340 233.5C343.369 231.344 343.369 231.344 343.369 231.344C343.369 231.344 343.369 231.344 343.369 231.344C343.369 231.344 343.369 231.344 343.369 231.344C343.369 231.343 343.368 231.343 343.368 231.342C343.367 231.341 343.367 231.34 343.366 231.339C343.364 231.336 343.361 231.332 343.358 231.327C343.352 231.317 343.343 231.304 343.332 231.286C343.309 231.25 343.275 231.199 343.232 231.132C343.145 230.997 343.017 230.801 342.85 230.546C342.515 230.037 342.022 229.294 341.381 228.346L338.068 230.587Z" fill="#306C4D"/>
<path d="M238.5 147L238.977 143.028L238.5 147ZM328.794 224.354C330.094 226.14 332.596 226.534 334.382 225.234C336.168 223.934 336.563 221.432 335.263 219.646L332.028 222L328.794 224.354ZM0.141152 9.90504C0.204383 12.1133 2.04577 13.8521 4.254 13.7889C6.46224 13.7257 8.20111 11.8843 8.13787 9.67606L4.13951 9.79055L0.141152 9.90504ZM9.26386 28.9707C9.06815 26.7702 7.12568 25.145 4.92523 25.3408C2.72477 25.5365 1.09961 27.4789 1.29532 29.6794L5.27959 29.325L9.26386 28.9707ZM3.68875 49.3675C4.02837 51.5503 6.07325 53.0446 8.25613 52.705C10.439 52.3654 11.9333 50.3205 11.5936 48.1376L7.6412 48.7525L3.68875 49.3675ZM15.2426 67.0664C14.7429 64.9146 12.5934 63.5752 10.4415 64.075C8.2896 64.5747 6.95028 66.7243 7.45001 68.8761L11.3463 67.9713L15.2426 67.0664ZM12.7582 88.0663C13.4402 90.1676 15.6965 91.3181 17.7977 90.6361C19.8989 89.9541 21.0495 87.6979 20.3675 85.5966L16.5628 86.8315L12.7582 88.0663ZM27.1747 103.497C26.2813 101.476 23.9191 100.563 21.8987 101.456C19.8783 102.35 18.9648 104.712 19.8582 106.732L23.5165 105.115L27.1747 103.497ZM29.0792 124.561C30.2203 126.452 32.6789 127.061 34.5704 125.919C36.462 124.778 37.0704 122.32 35.9292 120.428L32.5042 122.494L29.0792 124.561ZM46.9075 135.836C45.4815 134.149 42.9578 133.937 41.2704 135.363C39.5831 136.789 39.3712 139.313 40.7971 141L43.8523 138.418L46.9075 135.836ZM55.344 155.203C57.0739 156.577 59.59 156.288 60.9641 154.558C62.3381 152.828 62.0496 150.312 60.3198 148.938L57.8319 152.07L55.344 155.203ZM76.1038 158.773C74.1037 157.835 71.7218 158.696 70.7837 160.696C69.8455 162.696 70.7064 165.078 72.7064 166.016L74.4051 162.395L76.1038 158.773ZM92.2807 172.441C94.4464 172.877 96.5554 171.475 96.9914 169.309C97.4274 167.144 96.0252 165.035 93.8595 164.599L93.0701 168.52L92.2807 172.441ZM112.669 166.213C110.46 166.258 108.707 168.085 108.752 170.294C108.797 172.503 110.624 174.256 112.833 174.211L112.751 170.212L112.669 166.213ZM133.135 172.031C135.308 171.631 136.744 169.545 136.344 167.373C135.944 165.2 133.858 163.763 131.686 164.163L132.41 168.097L133.135 172.031ZM150.58 159.666C148.453 160.262 147.212 162.471 147.809 164.598C148.406 166.725 150.614 167.965 152.741 167.368L151.66 163.517L150.58 159.666ZM171.798 161.645C173.908 160.993 175.091 158.754 174.439 156.643C173.787 154.532 171.548 153.349 169.437 154.001L170.617 157.823L171.798 161.645ZM188.562 148.364C186.429 148.939 185.166 151.134 185.741 153.267C186.315 155.4 188.511 156.663 190.644 156.088L189.603 152.226L188.562 148.364ZM209.561 151.898C211.742 151.544 213.223 149.49 212.869 147.309C212.515 145.128 210.461 143.648 208.28 144.001L208.921 147.95L209.561 151.898ZM228.673 142.363C226.464 142.338 224.652 144.108 224.627 146.317C224.602 148.526 226.373 150.337 228.582 150.363L228.627 146.363L228.673 142.363ZM247.318 152.968C249.432 153.612 251.667 152.421 252.311 150.307C252.955 148.194 251.764 145.959 249.651 145.315L248.485 149.141L247.318 152.968ZM269.111 154.146C267.212 153.018 264.758 153.643 263.629 155.542C262.501 157.442 263.127 159.896 265.026 161.024L267.069 157.585L269.111 154.146ZM281.245 172.475C282.959 173.868 285.479 173.608 286.872 171.893C288.265 170.179 288.004 167.66 286.29 166.266L283.767 169.371L281.245 172.475ZM301.762 180.232C300.193 178.678 297.66 178.69 296.105 180.259C294.551 181.829 294.563 184.362 296.132 185.916L298.947 183.074L301.762 180.232ZM309.911 200.639C311.363 202.304 313.89 202.476 315.554 201.023C317.219 199.571 317.391 197.044 315.938 195.379L312.925 198.009L309.911 200.639ZM329.069 211.388C327.719 209.64 325.207 209.317 323.458 210.668C321.71 212.018 321.388 214.53 322.738 216.279L325.904 213.834L329.069 211.388ZM4 0H0C0 3.31412 0.0470026 6.61699 0.141152 9.90504L4.13951 9.79055L8.13787 9.67606C8.04593 6.46505 8 3.23851 8 0H4ZM5.27959 29.325L1.29532 29.6794C1.88824 36.3458 2.68551 42.9192 3.68875 49.3675L7.6412 48.7525L11.5936 48.1376C10.6183 41.8688 9.84187 35.4694 9.26386 28.9707L5.27959 29.325ZM11.3463 67.9713L7.45001 68.8761C8.97988 75.4638 10.7484 81.874 12.7582 88.0663L16.5628 86.8315L20.3675 85.5966C18.4324 79.6347 16.7241 73.4455 15.2426 67.0664L11.3463 67.9713ZM23.5165 105.115L19.8582 106.732C22.631 113.002 25.7029 118.964 29.0792 124.561L32.5042 122.494L35.9292 120.428C32.7416 115.144 29.8228 109.485 27.1747 103.497L23.5165 105.115ZM43.8523 138.418L40.7971 141C45.2591 146.28 50.1059 151.042 55.344 155.203L57.8319 152.07L60.3198 148.938C55.5282 145.132 51.0568 140.746 46.9075 135.836L43.8523 138.418ZM74.4051 162.395L72.7064 166.016C75.7909 167.463 78.9744 168.728 82.2564 169.802L83.5 166L84.7436 162.198C81.7748 161.227 78.8952 160.083 76.1038 158.773L74.4051 162.395ZM83.5 166L82.2564 169.802C85.6142 170.9 88.9553 171.772 92.2807 172.441L93.0701 168.52L93.8595 164.599C90.8362 163.99 87.7985 163.198 84.7436 162.198L83.5 166ZM112.751 170.212L112.833 174.211C119.69 174.07 126.456 173.261 133.135 172.031L132.41 168.097L131.686 164.163C125.335 165.333 119.007 166.083 112.669 166.213L112.751 170.212ZM151.66 163.517L152.741 167.368C159.13 165.575 165.501 163.59 171.798 161.645L170.617 157.823L169.437 154.001C163.103 155.958 156.846 157.907 150.58 159.666L151.66 163.517ZM189.603 152.226L190.644 156.088C196.974 154.382 203.267 152.919 209.561 151.898L208.921 147.95L208.28 144.001C201.634 145.08 195.061 146.612 188.562 148.364L189.603 152.226ZM228.627 146.363L228.582 150.363C231.723 150.398 234.869 150.593 238.023 150.972L238.5 147L238.977 143.028C235.519 142.614 232.085 142.402 228.673 142.363L228.627 146.363ZM238.5 147L238.023 150.972C241.092 151.34 244.195 152.016 247.318 152.968L248.485 149.141L249.651 145.315C246.126 144.241 242.561 143.459 238.977 143.028L238.5 147ZM267.069 157.585L265.026 161.024C270.541 164.299 275.975 168.193 281.245 172.475L283.767 169.371L286.29 166.266C280.781 161.79 275.026 157.659 269.111 154.146L267.069 157.585ZM298.947 183.074L296.132 185.916C301.043 190.78 305.666 195.774 309.911 200.639L312.925 198.009L315.938 195.379C311.587 190.393 306.831 185.254 301.762 180.232L298.947 183.074ZM325.904 213.834L322.738 216.279C325.003 219.211 327.032 221.933 328.794 224.354L332.028 222L335.263 219.646C333.46 217.169 331.385 214.386 329.069 211.388L325.904 213.834Z" fill="#306C4D"/>
<path d="M300 219.5L340 234.5L347.5 196" stroke="#306C4D" stroke-width="8" stroke-linecap="round"/>
<path d="M313.5 198.5L325.5 213" stroke="#306C4D" stroke-width="8" stroke-linecap="round"/>
</svg>
